<svg width="191" height="24" viewBox="0 0 191 24" enable-background="new 0 0 146.3 40.375" xmlns="http://www.w3.org/2000/svg" xml:space="preserve"><style>

.header__logo-frontend {
  display: none;
}

.header__logo-letter {
  fill: #ffffff;
}

.header__menu--openned .header__logo-frontend {
  display: block;
  fill: #ffffff;
}

</style><g class="header__logo-liga"><path d="M35.6435 0.119629L29.0242 12.0659L28.0174 14.3245L28.2315 12.2835L28.2224 0.119629H23.1611V23.5865H23.1794V23.601H27.8079L34.4317 11.413L35.3565 9.30906L35.1925 11.1953L35.2016 23.601H40.2629L40.2447 0.119629H35.6435Z"></path><path d="M10.0952 0.119629L7.6352 0.124463L0 23.601H5.09773L9.99501 6.81824L14.8604 23.601H20.1905L12.5461 0.119629H10.0952Z"></path><path d="M60.143 0.119629H45.77V5.49303V23.5865H50.8632V5.49303H60.143V0.119629Z"></path><path d="M74.315 23.6012H79.645L71.9962 0.11499H69.5453L67.0852 0.119828L59.4546 23.6012H64.5478L65.8461 19.1564H73.0258L74.315 23.6012ZM67.1353 14.7407L69.4496 6.81843L71.7456 14.7407H67.1353Z"></path></g><g class="header__logo-flag"><path d="M86.8164 0.0905762V17.5698L95.4083 23.5236L104 17.5698V0.0905762H86.8164Z"></path></g><g class="header__logo-letter"><path d="M100.37 13.4592C100.538 13.4592 100.725 13.4399 100.912 13.377L100.893 15.3213C100.433 15.4858 99.8456 15.6115 99.2807 15.6067C98.2557 15.597 97.4858 15.2052 97.0758 14.4314C96.0873 15.2101 94.9347 15.6695 93.4496 15.6599C91.5681 15.6405 89.9463 14.5185 89.9645 12.4871C89.9873 9.88021 92.3972 9.09185 94.4062 9.1112C95.1989 9.12087 96.0781 9.23212 96.7843 9.41107L96.7888 9.04833C96.7979 8.02298 96.0098 7.31201 94.4427 7.2975C93.0623 7.28299 91.8278 7.66024 90.8847 8.03265L90.9075 5.46929C91.723 5.19844 93.2537 4.80668 94.8026 4.82119C97.8138 4.85021 99.7226 6.12706 99.6953 9.50296L99.668 12.7725C99.6589 13.3045 99.9914 13.4544 100.37 13.4592ZM92.5521 12.3178C92.543 13.1642 93.2992 13.7107 94.265 13.7204C95.1625 13.7301 96.0144 13.4786 96.7569 12.8257L96.7706 11.0652C96.2877 10.9442 95.5543 10.7943 94.8891 10.7895C93.7183 10.775 92.5658 11.1667 92.5521 12.3178Z"></path></g><g class="header__logo-frontend"><path d="M116.65 8.57847H116.078C115.43 8.57847 114.857 8.48431 114.35 8.29598C113.848 8.10765 113.416 7.84869 113.07 7.51911C112.723 7.18953 112.452 6.80345 112.271 6.35146C112.09 5.89946 112 5.4051 112 4.87306C112 4.34573 112.095 3.85608 112.281 3.39937C112.467 2.94267 112.738 2.55188 113.09 2.22231C113.441 1.89273 113.868 1.63848 114.375 1.44544C114.883 1.25711 115.455 1.16294 116.098 1.16294H116.66V0H117.504V1.16294H118.066C118.709 1.16294 119.287 1.25711 119.789 1.44544C120.296 1.63377 120.723 1.89273 121.075 2.22231C121.426 2.55188 121.692 2.94267 121.883 3.39937C122.074 3.85608 122.164 4.34573 122.164 4.87306C122.164 5.4051 122.069 5.89946 121.883 6.35146C121.697 6.80345 121.426 7.19424 121.075 7.51911C120.723 7.84398 120.296 8.10294 119.789 8.29598C119.287 8.48431 118.709 8.57847 118.066 8.57847H117.504V9.74142H116.66V8.57847H116.65ZM116.665 7.91931V1.80797H116.088C115.591 1.80797 115.149 1.88331 114.757 2.02926C114.365 2.17522 114.029 2.37297 113.753 2.6178C113.476 2.86263 113.266 3.14984 113.115 3.47C112.964 3.79487 112.889 4.12916 112.889 4.47286V5.27326C112.889 5.61697 112.964 5.95126 113.115 6.26671C113.266 6.58687 113.476 6.86937 113.748 7.1142C114.019 7.35903 114.35 7.55678 114.742 7.70273C115.134 7.84869 115.581 7.92402 116.073 7.92402H116.665V7.91931ZM118.051 7.91931C118.539 7.91931 118.98 7.84398 119.377 7.69802C119.774 7.55207 120.11 7.35432 120.387 7.10949C120.663 6.86466 120.874 6.58217 121.024 6.262C121.175 5.94184 121.25 5.61226 121.25 5.26856V4.46815C121.25 4.12445 121.175 3.79016 121.024 3.46529C120.874 3.14042 120.663 2.85792 120.387 2.61309C120.11 2.36826 119.774 2.17052 119.377 2.02456C118.98 1.8786 118.539 1.80327 118.051 1.80327H117.479V7.91461H118.051V7.91931Z"></path><path d="M124.997 9.36894V0.3479H128.838C129.687 0.3479 130.34 0.573898 130.787 1.02589C131.234 1.47789 131.46 2.08996 131.46 2.86682C131.46 3.6531 131.234 4.26989 130.787 4.72188C130.34 5.17387 129.687 5.39987 128.838 5.39987H125.835V9.36894H124.997ZM125.835 4.71717H128.838C129.401 4.71717 129.828 4.57121 130.119 4.28401C130.415 3.99681 130.561 3.62485 130.561 3.17757V2.55608C130.561 2.11821 130.415 1.75096 130.119 1.46376C129.823 1.17656 129.396 1.0306 128.838 1.0306H125.835V4.71717Z"></path><path d="M137.632 9.52246C136.376 9.52246 135.397 9.12696 134.689 8.34068C133.976 7.5544 133.624 6.39146 133.624 4.85657C133.624 3.32167 133.981 2.16344 134.689 1.37245C135.402 0.586169 136.381 0.190674 137.632 0.190674C138.877 0.190674 139.851 0.586171 140.564 1.38187C141.277 2.17756 141.629 3.33109 141.629 4.85657C141.629 6.38204 141.272 7.54027 140.564 8.33126C139.851 9.12696 138.877 9.52246 137.632 9.52246ZM137.632 8.83505C138.099 8.83505 138.52 8.75972 138.902 8.60905C139.279 8.45839 139.605 8.2371 139.876 7.94048C140.148 7.64857 140.358 7.28603 140.509 6.86229C140.66 6.43854 140.735 5.9583 140.735 5.42156V4.28216C140.735 3.74541 140.66 3.26517 140.509 2.84143C140.358 2.41769 140.148 2.05985 139.876 1.77265C139.605 1.48074 139.279 1.25945 138.902 1.10408C138.525 0.948705 138.099 0.868665 137.632 0.868665C137.164 0.868665 136.738 0.948705 136.356 1.10408C135.974 1.25945 135.643 1.48074 135.372 1.77265C135.1 2.06456 134.89 2.41769 134.739 2.84143C134.588 3.26517 134.513 3.74541 134.513 4.28216V5.42156C134.513 5.9583 134.588 6.43854 134.739 6.86229C134.89 7.28603 135.1 7.64386 135.372 7.94048C135.643 8.23239 135.969 8.45839 136.356 8.60905C136.738 8.75972 137.164 8.83505 137.632 8.83505Z"></path><path d="M150.815 5.1315H145.441V9.36894H144.598V0.3479H145.441V4.44409H150.815V0.3479H151.658V9.36894H150.815V5.1315Z"></path><path d="M158.147 1.0306V9.36423H157.308V1.0306H154.024V0.3479H161.431V1.0306H158.147Z"></path><path d="M163.801 9.36895V0.3479H169.521V1.0306H164.64V4.4441H169.28V5.1315H164.64V8.68625H169.521V9.37365H163.801V9.36895Z"></path><path d="M178.766 5.1315H173.393V9.36894H172.549V0.3479H173.393V4.44409H178.766V0.3479H179.61V9.36894H178.766V5.1315Z"></path><path d="M181.835 8.68153H182.845C183.276 8.11183 183.603 7.36322 183.834 6.42627C184.065 5.48933 184.175 4.31697 184.175 2.90449V0.3479H189.684V8.68153H191V11.304H190.217V9.36423H182.613V11.304H181.83V8.68153H181.835ZM188.846 8.68153V1.0306H184.989V2.94216C184.989 4.36405 184.883 5.53641 184.672 6.46394C184.462 7.39147 184.185 8.11183 183.839 8.62974V8.68153H188.846Z"></path><path d="M119.482 23.2515L118.418 20.4454H114.255L113.19 23.2515H112.346L115.811 14.2305H116.891L120.371 23.2515H119.482ZM116.354 14.965H116.298L114.46 19.758H118.192L116.354 14.965Z"></path><path d="M123.032 22.566H124.408L124.971 21.276L121.285 14.2324H122.199L124.679 18.9878L125.322 20.3202H125.378L125.925 18.9642L127.974 14.2324H128.843L125.267 22.453C125.126 22.7732 124.961 22.9851 124.775 23.0934C124.589 23.2017 124.313 23.2535 123.946 23.2535H123.032V22.566Z"></path><path d="M134.392 14.9151V23.2487H133.553V14.9151H130.269V14.2324H137.676V14.9151H134.392Z"></path><path d="M143.1 23.4054C141.885 23.4054 140.946 23.0147 140.283 22.2378C139.62 21.4562 139.289 20.3027 139.289 18.7678C139.289 17.2423 139.62 16.0794 140.283 15.279C140.946 14.4786 141.885 14.0784 143.1 14.0784C143.884 14.0784 144.547 14.2479 145.084 14.5869C145.621 14.9259 146.038 15.392 146.339 15.9899L145.651 16.3666C145.435 15.8769 145.109 15.4861 144.677 15.1989C144.24 14.9117 143.718 14.7658 143.1 14.7658C142.181 14.7658 141.468 15.0671 140.956 15.6745C140.444 16.2818 140.182 17.1434 140.182 18.2687V19.2951C140.182 20.411 140.439 21.2632 140.956 21.847C141.468 22.4355 142.186 22.7274 143.1 22.7274C143.753 22.7274 144.3 22.5721 144.742 22.2707C145.184 21.9647 145.511 21.5551 145.722 21.0372L146.41 21.4138C146.118 22.0353 145.697 22.525 145.134 22.8828C144.572 23.2312 143.894 23.4054 143.1 23.4054Z"></path><path d="M152.451 23.4048C151.196 23.4048 150.217 23.0093 149.508 22.223C148.795 21.4367 148.444 20.2738 148.444 18.7389C148.444 17.204 148.8 16.0458 149.508 15.2548C150.222 14.4685 151.201 14.073 152.451 14.073C153.697 14.073 154.671 14.4685 155.384 15.2642C156.097 16.0599 156.449 17.2134 156.449 18.7389C156.449 20.2644 156.092 21.4226 155.384 22.2136C154.676 23.0093 153.697 23.4048 152.451 23.4048ZM152.451 22.7221C152.918 22.7221 153.34 22.6468 153.722 22.4961C154.099 22.3454 154.425 22.1241 154.696 21.8275C154.967 21.5356 155.178 21.1731 155.329 20.7493C155.48 20.3256 155.555 19.8453 155.555 19.3086V18.1692C155.555 17.6324 155.48 17.1522 155.329 16.7285C155.178 16.3047 154.967 15.9469 154.696 15.6597C154.425 15.3678 154.099 15.1465 153.722 14.9911C153.345 14.8357 152.918 14.7557 152.451 14.7557C151.984 14.7557 151.557 14.8357 151.176 14.9911C150.794 15.1465 150.463 15.3678 150.191 15.6597C149.92 15.9516 149.709 16.3047 149.559 16.7285C149.408 17.1522 149.333 17.6324 149.333 18.1692V19.3086C149.333 19.8453 149.408 20.3256 149.559 20.7493C149.709 21.1731 149.92 21.5309 150.191 21.8275C150.463 22.1194 150.789 22.3454 151.176 22.4961C151.562 22.6468 151.984 22.7221 152.451 22.7221Z"></path><path d="M159.421 23.2535V14.2324H163.263C164.111 14.2324 164.764 14.4584 165.211 14.9104C165.658 15.3624 165.884 15.9745 165.884 16.7513C165.884 17.5376 165.658 18.1544 165.211 18.6064C164.764 19.0584 164.111 19.2844 163.263 19.2844H160.26V23.2535H159.421ZM160.265 18.597H163.268C163.83 18.597 164.257 18.451 164.548 18.1638C164.845 17.8766 164.99 17.5047 164.99 17.0574V16.4359C164.99 15.998 164.845 15.6308 164.548 15.3436C164.252 15.0564 163.825 14.9104 163.268 14.9104H160.265V18.597Z"></path><path d="M171.861 23.4054C170.646 23.4054 169.707 23.0147 169.044 22.2378C168.381 21.4562 168.05 20.3027 168.05 18.7678C168.05 17.2423 168.381 16.0794 169.044 15.279C169.707 14.4786 170.646 14.0784 171.861 14.0784C172.645 14.0784 173.308 14.2479 173.845 14.5869C174.382 14.9259 174.799 15.392 175.101 15.9899L174.413 16.3666C174.197 15.8769 173.87 15.4861 173.438 15.1989C173.001 14.9117 172.479 14.7658 171.861 14.7658C170.942 14.7658 170.229 15.0671 169.717 15.6745C169.205 16.2818 168.944 17.1434 168.944 18.2687V19.2951C168.944 20.411 169.2 21.2632 169.717 21.847C170.229 22.4355 170.947 22.7274 171.861 22.7274C172.514 22.7274 173.062 22.5721 173.504 22.2707C173.946 21.9647 174.272 21.5551 174.483 21.0372L175.171 21.4138C174.88 22.0353 174.458 22.525 173.895 22.8828C173.338 23.2312 172.66 23.4054 171.861 23.4054Z"></path></g></svg>