<svg width="104" height="24" viewBox="0 0 104 24" fill="none" xmlns="http://www.w3.org/2000/svg"><path d="M35.6435 0.119629L29.0242 12.0659L28.0174 14.3245L28.2315 12.2835L28.2224 0.119629H23.1611V23.5865H23.1794V23.601H27.8079L34.4317 11.413L35.3565 9.30906L35.1925 11.1953L35.2016 23.601H40.2629L40.2447 0.119629H35.6435Z" fill="black"></path><path d="M10.0952 0.119629L7.6352 0.124463L0 23.601H5.09773L9.99501 6.81824L14.8604 23.601H20.1905L12.5461 0.119629H10.0952Z" fill="black"></path><path d="M60.143 0.119629H45.77V5.49303V23.5865H50.8632V5.49303H60.143V0.119629Z" fill="black"></path><path d="M74.315 23.6012H79.645L71.9962 0.11499H69.5453L67.0852 0.119828L59.4546 23.6012H64.5478L65.8461 19.1564H73.0258L74.315 23.6012ZM67.1353 14.7407L69.4496 6.81843L71.7456 14.7407H67.1353Z" fill="black"></path><path d="M86.8164 0.0905762V17.5698L95.4083 23.5236L104 17.5698V0.0905762H86.8164Z" fill="black"></path><path d="M100.37 13.4592C100.538 13.4592 100.725 13.4399 100.912 13.377L100.893 15.3213C100.433 15.4858 99.8456 15.6115 99.2807 15.6067C98.2557 15.597 97.4858 15.2052 97.0758 14.4314C96.0873 15.2101 94.9347 15.6695 93.4496 15.6599C91.5681 15.6405 89.9463 14.5185 89.9645 12.4871C89.9873 9.88021 92.3972 9.09185 94.4062 9.1112C95.1989 9.12087 96.0781 9.23212 96.7843 9.41107L96.7888 9.04833C96.7979 8.02298 96.0098 7.31201 94.4427 7.2975C93.0623 7.28299 91.8278 7.66024 90.8847 8.03265L90.9075 5.46929C91.723 5.19844 93.2537 4.80668 94.8026 4.82119C97.8138 4.85021 99.7226 6.12706 99.6953 9.50296L99.668 12.7725C99.6589 13.3045 99.9914 13.4544 100.37 13.4592ZM92.5521 12.3178C92.543 13.1642 93.2992 13.7107 94.265 13.7204C95.1625 13.7301 96.0144 13.4786 96.7569 12.8257L96.7706 11.0652C96.2877 10.9442 95.5543 10.7943 94.8891 10.7895C93.7183 10.775 92.5658 11.1667 92.5521 12.3178Z" fill="white"></path></svg>