<svg width="9" height="9" viewBox="0 0 9 9" fill="none" xmlns="http://www.w3.org/2000/svg"><mask id="path-1-inside-1" fill="white"><path fill-rule="evenodd" clip-rule="evenodd" d="M4.50022 9C6.9855 9 9.00022 6.98528 9.00022 4.5C9.00022 2.01472 6.9855 0 4.50022 0C2.8794 0 1.45872 0.856902 0.666504 2.14239C0.92726 2.05018 1.20788 2 1.50022 2C2.88093 2 4.00022 3.11929 4.00022 4.5C4.00022 5.88071 2.88093 7 1.50022 7C1.20788 7 0.92726 6.94982 0.666504 6.85761C1.45872 8.1431 2.8794 9 4.50022 9Z"></path></mask><path d="M0.666504 2.14239L-0.184814 1.61774L-1.67132 4.0298L0.999903 3.08517L0.666504 2.14239ZM0.666504 6.85761L0.999903 5.91483L-1.67132 4.9702L-0.184814 7.38226L0.666504 6.85761ZM8.00022 4.5C8.00022 6.433 6.43321 8 4.50022 8V10C7.53778 10 10.0002 7.53757 10.0002 4.5H8.00022ZM4.50022 1C6.43321 1 8.00022 2.567 8.00022 4.5H10.0002C10.0002 1.46243 7.53778 -1 4.50022 -1V1ZM1.51782 2.66704C2.1356 1.66461 3.24072 1 4.50022 1V-1C2.51808 -1 0.781848 0.0491932 -0.184814 1.61774L1.51782 2.66704ZM0.999903 3.08517C1.15507 3.0303 1.32303 3 1.50022 3V1C1.09273 1 0.699447 1.07005 0.333105 1.1996L0.999903 3.08517ZM1.50022 3C2.32864 3 3.00022 3.67157 3.00022 4.5H5.00022C5.00022 2.567 3.43321 1 1.50022 1V3ZM3.00022 4.5C3.00022 5.32843 2.32864 6 1.50022 6V8C3.43321 8 5.00022 6.433 5.00022 4.5H3.00022ZM1.50022 6C1.32303 6 1.15507 5.9697 0.999903 5.91483L0.333105 7.8004C0.699447 7.92995 1.09273 8 1.50022 8V6ZM4.50022 8C3.24072 8 2.1356 7.33539 1.51782 6.33296L-0.184814 7.38226C0.781848 8.95081 2.51808 10 4.50022 10V8Z" fill="#2C39F2" mask="url(#path-1-inside-1)"></path></svg>