<svg width="47" height="26" viewBox="0 0 47 26" fill="none" xmlns="http://www.w3.org/2000/svg"><rect x="1.5" y="1.5" width="44" height="22.7381" rx="11.369" stroke="black" stroke-width="3"></rect><mask id="path-2-inside-1" fill="white"><path fill-rule="evenodd" clip-rule="evenodd" d="M32.5002 17C34.9855 17 37.0002 14.9853 37.0002 12.5C37.0002 10.0147 34.9855 8 32.5002 8C30.8794 8 29.4587 8.8569 28.6665 10.1424C28.9273 10.0502 29.2079 10 29.5002 10C30.8809 10 32.0002 11.1193 32.0002 12.5C32.0002 13.8807 30.8809 15 29.5002 15C29.2079 15 28.9273 14.9498 28.6665 14.8576C29.4587 16.1431 30.8794 17 32.5002 17Z"></path></mask><path d="M28.6665 10.1424L27.8152 9.61774L26.3287 12.0298L28.9999 11.0852L28.6665 10.1424ZM28.6665 14.8576L28.9999 13.9148L26.3287 12.9702L27.8152 15.3823L28.6665 14.8576ZM36.0002 12.5C36.0002 14.433 34.4332 16 32.5002 16V18C35.5378 18 38.0002 15.5376 38.0002 12.5H36.0002ZM32.5002 9C34.4332 9 36.0002 10.567 36.0002 12.5H38.0002C38.0002 9.46243 35.5378 7 32.5002 7V9ZM29.5178 10.667C30.1356 9.66461 31.2407 9 32.5002 9V7C30.5181 7 28.7818 8.04919 27.8152 9.61774L29.5178 10.667ZM28.9999 11.0852C29.1551 11.0303 29.323 11 29.5002 11V9C29.0927 9 28.6994 9.07005 28.3331 9.1996L28.9999 11.0852ZM29.5002 11C30.3286 11 31.0002 11.6716 31.0002 12.5H33.0002C33.0002 10.567 31.4332 9 29.5002 9V11ZM31.0002 12.5C31.0002 13.3284 30.3286 14 29.5002 14V16C31.4332 16 33.0002 14.433 33.0002 12.5H31.0002ZM29.5002 14C29.323 14 29.1551 13.9697 28.9999 13.9148L28.3331 15.8004C28.6994 15.9299 29.0927 16 29.5002 16V14ZM32.5002 16C31.2407 16 30.1356 15.3354 29.5178 14.333L27.8152 15.3823C28.7818 16.9508 30.5181 18 32.5002 18V16Z" fill="#2C39F2" mask="url(#path-2-inside-1)"></path></svg>