<svg width="14" height="11" viewBox="0 0 14 11" fill="none" xmlns="http://www.w3.org/2000/svg"><path d="M4.91917 10.7918L0.208876 6.01232C-0.0679533 5.73187 -0.0698605 5.27521 0.204617 4.99236C0.479094 4.7095 0.926016 4.70755 1.20285 4.988L5.38279 9.22558L12.7615 0.247703C13.0175 -0.0527826 13.4635 -0.0842871 13.7576 0.177335C14.0517 0.438958 14.0825 0.894636 13.8264 1.19512L5.95077 10.7526C5.82345 10.9032 5.64057 10.9928 5.44597 11C5.23001 11.0008 5.05138 10.9257 4.91917 10.7918Z" fill="#7CE187"></path><path d="M4.91917 10.7918L0.208876 6.01232C-0.0679533 5.73187 -0.0698605 5.27521 0.204617 4.99236C0.479094 4.7095 0.926016 4.70755 1.20285 4.988L5.38279 9.22558L12.7615 0.247703C13.0175 -0.0527826 13.4635 -0.0842871 13.7576 0.177335C14.0517 0.438958 14.0825 0.894636 13.8264 1.19512L5.95077 10.7526C5.82345 10.9032 5.64057 10.9928 5.44597 11C5.23001 11.0008 5.05138 10.9257 4.91917 10.7918Z" fill="#3D3BFF"></path></svg>